<svg style="object-fit:cover" id="my-svg" version="1" baseProfile="full" width="100%" height="100%" viewBox="0 0 1880 939" xmlns="http://www.w3.org/2000/svg"><rect width="1880" height="939" fill="#0a010b"/><defs><linearGradient id="linear-gradient" x1="0" x2="1" y1="0" y2="1"><stop offset="0%" stop-color="#8b66be90"/><stop offset="100%" stop-color="#d9caea90"/></linearGradient></defs><path transform="scale(1, 1)" style="transform-origin:center" d="M 0,939 V 0,657 C 135.4523809523809,710.1785714285714 270.9047619047618,763.3571428571429 450,726 C 629.0952380952382,688.6428571428571 851.8333333333335,560.7500000000001 1003,546 C 1154.1666666666665,531.2499999999999 1233.7619047619048,629.6428571428571 1368,667 C 1502.2380952380952,704.3571428571429 1691.1190476190477,680.6785714285714 1880,657 C 1880,657 1880,939 1880,939 Z" stroke="none" stroke-width="0" fill="url(#linear-gradient)" class="transition-all duration-300 ease-in-out delay-150"/><defs><linearGradient id="linear-gradient" x1="0" x2="1" y1="0" y2="1"><stop offset="0%" stop-color="#8b66beff"/><stop offset="100%" stop-color="#d9caeaff"/></linearGradient></defs><path transform="scale(1, 1)" d="M 0,939 V 0,985 C 135.66666666666663,934 271.33333333333326,883 440,826 C 608.6666666666667,769 810.3333333333335,706 958,795 C 1105.6666666666665,884 1199.3333333333333,1125 1344,1182 C 1488.6666666666667,1239 1684.3333333333335,1112 1880,985 C 1880,985 1880,939 1880,939 Z" stroke="none" stroke-width="0" fill="url(#linear-gradient)" class="transition-all duration-300 ease-in-out delay-150" style="transform-origin: center center;"/></svg>