<svg style="object-fit:cover" id="my-svg" version="1" baseProfile="full" width="100%" height="100%" viewBox="0 0 1880 939" xmlns="http://www.w3.org/2000/svg"><rect width="1880" height="939" fill="#fafafa"/><defs><linearGradient id="linear-gradient" x1="0" x2="1" y1="0" y2="1"><stop offset="0%" stop-color="#8437c380"/><stop offset="100%" stop-color="#71588480"/></linearGradient></defs><path transform="scale(1, -1)" style="transform-origin:center" d="M 0,939 V 0,563 C 182.6309523809524,620.6785714285714 365.2619047619048,678.3571428571429 510,644 C 654.7380952380952,609.6428571428571 761.583333333333,483.25 912,515 C 1062.416666666667,546.75 1256.4047619047622,736.6428571428571 1425,771 C 1593.5952380952378,805.3571428571429 1736.7976190476188,684.1785714285714 1880,563 C 1880,563 1880,939 1880,939 Z" stroke="none" stroke-width="0" fill="url(#linear-gradient)" class="transition-all duration-300 ease-in-out delay-150"/><defs><linearGradient id="linear-gradient" x1="0" x2="1" y1="0" y2="1"><stop offset="0%" stop-color="#8437c390"/><stop offset="100%" stop-color="#71588490"/></linearGradient></defs><path transform="scale(1, -1)" d="M 0,939 V 0,845 C 129.66666666666663,789.9642857142858 259.33333333333326,734.9285714285714 408,697 C 556.6666666666667,659.0714285714286 724.3333333333335,638.2500000000001 887,682 C 1049.6666666666665,725.7499999999999 1207.3333333333333,834.0714285714286 1372,872 C 1536.6666666666667,909.9285714285714 1708.3333333333335,877.4642857142858 1880,845 C 1880,845 1880,939 1880,939 Z" stroke="none" stroke-width="0" fill="url(#linear-gradient)" class="transition-all duration-300 ease-in-out delay-150" style="transform-origin: center center;"/><defs><linearGradient id="linear-gradient" x1="0" x2="1" y1="0" y2="1"><stop offset="0%" stop-color="#8437c3ff"/><stop offset="100%" stop-color="#715884ff"/></linearGradient></defs><path transform="scale(1, -1)" d="M 0,939 V 0,1267 C 120.48809523809524,1325.142857142857 240.97619047619048,1383.2857142857142 420,1321 C 599.0238095238095,1258.7142857142858 836.5833333333335,1076 986,1080 C 1135.4166666666665,1084 1196.6904761904764,1274.7142857142858 1331,1337 C 1465.3095238095236,1399.2857142857142 1672.654761904762,1333.142857142857 1880,1267 C 1880,1267 1880,939 1880,939 Z" stroke="none" stroke-width="0" fill="url(#linear-gradient)" class="transition-all duration-300 ease-in-out delay-150" style="transform-origin: center center;"/></svg>