<svg width="193" height="103" viewBox="0 0 193 103" fill="none" xmlns="http://www.w3.org/2000/svg">
<rect width="193" height="103" fill="white"/>
<g clip-path="url(#clip0_926_167)">
<path d="M64.2936 49.6H52.849V45.8H67.2566V42H52.8227C51.8202 42 50.8588 42.3976 50.1499 43.1053C49.4412 43.813 49.043 44.7728 49.043 45.7736V49.6264C49.043 50.6272 49.4412 51.587 50.1499 52.2947C50.8588 53.0024 51.8202 53.4 52.8227 53.4H64.2672V57.2H49.3151V61H64.2936C65.296 61 66.2575 60.6024 66.9662 59.8947C67.675 59.187 68.0733 58.2272 68.0733 57.2264V53.3736C68.0733 52.3728 67.675 51.413 66.9662 50.7053C66.2575 49.9976 65.296 49.6 64.2936 49.6Z" fill="#3B3B3B"/>
<path d="M86.4563 42H74.9695C74.4731 42 73.9819 42.0976 73.5234 42.2873C73.0651 42.477 72.6486 42.755 72.2977 43.1054C71.9471 43.4559 71.6689 43.8719 71.4792 44.3297C71.2895 44.7875 71.1922 45.2782 71.1924 45.7736V57.2264C71.1922 57.7218 71.2895 58.2125 71.4792 58.6703C71.6689 59.1281 71.9471 59.5441 72.2977 59.8946C72.6486 60.245 73.0651 60.523 73.5234 60.7127C73.9819 60.9024 74.4731 61 74.9695 61H86.4563C87.4587 61 88.4202 60.6024 89.129 59.8947C89.8377 59.187 90.236 58.2272 90.236 57.2264V45.7736C90.236 44.7728 89.8377 43.813 89.129 43.1053C88.4202 42.3976 87.4587 42 86.4563 42ZM86.4299 57.2H75.0117V45.8H86.4299V57.2Z" fill="#3B3B3B"/>
<path d="M126.658 42H115.456C114.454 42 113.493 42.3976 112.784 43.1053C112.075 43.813 111.677 44.7728 111.677 45.7736V61H115.483V54.7564H126.631V61H130.437V45.7736C130.438 45.278 130.34 44.7871 130.15 44.3291C129.961 43.8711 129.682 43.455 129.331 43.1045C128.98 42.754 128.563 42.4761 128.105 42.2865C127.646 42.097 127.154 41.9997 126.658 42ZM126.631 50.9564H115.483V45.8H126.631V50.9564Z" fill="#3B3B3B"/>
<path d="M171.221 42H160.022C159.525 41.999 159.033 42.0958 158.573 42.285C158.114 42.4742 157.696 42.752 157.344 43.1025C156.992 43.453 156.713 43.8693 156.523 44.3277C156.332 44.786 156.234 45.2774 156.234 45.7736V61H160.04V54.7564H171.194V61H175V45.7736C175 44.7728 174.602 43.813 173.894 43.1053C173.185 42.3976 172.223 42 171.221 42ZM171.194 50.9564H160.048V45.8H171.194V50.9564Z" fill="#3B3B3B"/>
<path d="M149.047 57.2H147.525L142.07 43.5833C141.883 43.1161 141.56 42.7155 141.144 42.4333C140.726 42.151 140.234 42.0001 139.731 42H136.342C135.674 42 135.033 42.265 134.561 42.7366C134.089 43.2082 133.823 43.8479 133.823 44.5149V61H137.629V45.8H139.152L144.604 59.4167C144.79 59.8839 145.112 60.2846 145.529 60.5669C145.946 60.8492 146.437 61.0001 146.941 61H150.329C150.997 61 151.638 60.735 152.111 60.2634C152.583 59.7918 152.848 59.1521 152.848 58.4851V42H149.042L149.047 57.2Z" fill="#3B3B3B"/>
<path d="M97.4145 42H93.6084V57.2264C93.6084 58.2272 94.0066 59.187 94.7155 59.8947C95.4244 60.6024 96.3856 61 97.3881 61H108.833V57.2H97.4145V42Z" fill="#3B3B3B"/>
<path fill-rule="evenodd" clip-rule="evenodd" d="M22.0282 56.4875C22.0958 56.4144 22.1775 56.3557 22.2683 56.3149C22.3591 56.2741 22.4573 56.252 22.5569 56.25H39.166C39.2364 56.251 39.3048 56.2722 39.3633 56.3112C39.4217 56.3501 39.4677 56.4051 39.4957 56.4695C39.5236 56.5339 39.5324 56.6049 39.5207 56.6741C39.5092 56.7433 39.4778 56.8077 39.4305 56.8596L35.9098 60.7625C35.8422 60.8356 35.7606 60.8943 35.6697 60.9351C35.5789 60.9759 35.4808 60.998 35.3812 61H18.7614C18.6911 60.999 18.6226 60.9778 18.5641 60.9388C18.5057 60.8999 18.4597 60.8449 18.4318 60.7806C18.4039 60.7161 18.3952 60.6451 18.4068 60.5759C18.4183 60.5067 18.4497 60.4423 18.4971 60.3904L22.0282 56.4875ZM39.4463 53.2522C39.4937 53.304 39.525 53.3685 39.5365 53.4377C39.5482 53.5069 39.5395 53.5779 39.5115 53.6423C39.4836 53.7068 39.4376 53.7617 39.3791 53.8006C39.3206 53.8396 39.2523 53.8608 39.1819 53.8618L22.5674 53.875C22.4679 53.873 22.3697 53.8509 22.2789 53.8101C22.188 53.7693 22.1064 53.7106 22.0388 53.6375L18.4918 49.7478C18.4444 49.696 18.4131 49.6315 18.4015 49.5623C18.3899 49.4931 18.3986 49.4221 18.4265 49.3577C18.4544 49.2932 18.5004 49.2383 18.5589 49.1994C18.6173 49.1604 18.6858 49.1392 18.7561 49.1382L35.3706 49.125C35.4702 49.127 35.5683 49.1491 35.6592 49.1899C35.75 49.2307 35.8317 49.2894 35.8992 49.3625L39.4463 53.2522ZM22.0282 42.2375C22.0958 42.1644 22.1775 42.1057 22.2683 42.0649C22.3591 42.0241 22.4573 42.002 22.5569 42L39.1767 42.0132C39.2469 42.0142 39.3155 42.0354 39.374 42.0744C39.4324 42.1133 39.4784 42.1683 39.5062 42.2327C39.5341 42.297 39.5429 42.3681 39.5314 42.4373C39.5197 42.5065 39.4883 42.5709 39.441 42.6228L35.9098 46.5125C35.8422 46.5856 35.7606 46.6443 35.6697 46.6851C35.5789 46.7259 35.4808 46.748 35.3812 46.75H18.7614C18.6911 46.749 18.6226 46.7278 18.5641 46.6888C18.5057 46.6499 18.4597 46.5949 18.4318 46.5306C18.4039 46.4661 18.3952 46.3951 18.4068 46.3259C18.4183 46.2567 18.4497 46.1923 18.4971 46.1404L22.0282 42.2375Z" fill="#3B3B3B"/>
</g>
<defs>
<clipPath id="clip0_926_167">
<rect width="157" height="19" fill="white" transform="translate(18 42)"/>
</clipPath>
</defs>
</svg>
