<svg id="visual" viewBox="0 0 900 600" width="900" height="600" xmlns="http://www.w3.org/2000/svg" xmlns:xlink="http://www.w3.org/1999/xlink" version="1.1"><rect x="0" y="0" width="900" height="600" fill="#ffffff"></rect><defs><linearGradient id="grad1_0" x1="33.3%" y1="100%" x2="100%" y2="0%"><stop offset="20%" stop-color="#6036a8" stop-opacity="1"></stop><stop offset="80%" stop-color="#6036a8" stop-opacity="1"></stop></linearGradient></defs><defs><linearGradient id="grad1_1" x1="33.3%" y1="100%" x2="100%" y2="0%"><stop offset="20%" stop-color="#6036a8" stop-opacity="1"></stop><stop offset="80%" stop-color="#b397d4" stop-opacity="1"></stop></linearGradient></defs><defs><linearGradient id="grad1_2" x1="33.3%" y1="100%" x2="100%" y2="0%"><stop offset="20%" stop-color="#ffffff" stop-opacity="1"></stop><stop offset="80%" stop-color="#b397d4" stop-opacity="1"></stop></linearGradient></defs><defs><linearGradient id="grad2_0" x1="0%" y1="100%" x2="66.7%" y2="0%"><stop offset="20%" stop-color="#6036a8" stop-opacity="1"></stop><stop offset="80%" stop-color="#6036a8" stop-opacity="1"></stop></linearGradient></defs><defs><linearGradient id="grad2_1" x1="0%" y1="100%" x2="66.7%" y2="0%"><stop offset="20%" stop-color="#b397d4" stop-opacity="1"></stop><stop offset="80%" stop-color="#6036a8" stop-opacity="1"></stop></linearGradient></defs><defs><linearGradient id="grad2_2" x1="0%" y1="100%" x2="66.7%" y2="0%"><stop offset="20%" stop-color="#b397d4" stop-opacity="1"></stop><stop offset="80%" stop-color="#ffffff" stop-opacity="1"></stop></linearGradient></defs><g transform="translate(900, 600)"><path d="M-486.7 0C-444.9 -54.4 -403 -108.7 -369.6 -153.1C-336.1 -197.4 -311.2 -231.8 -285.7 -285.7C-260.1 -339.5 -234 -412.9 -186.3 -449.7C-138.6 -486.5 -69.3 -486.6 0 -486.7L0 0Z" fill="#d9caea"></path><path d="M-324.5 0C-296.6 -36.2 -268.6 -72.5 -246.4 -102C-224.1 -131.6 -207.5 -154.5 -190.4 -190.4C-173.4 -226.4 -156 -275.3 -124.2 -299.8C-92.4 -324.3 -46.2 -324.4 0 -324.5L0 0Z" fill="#8b66be"></path><path d="M-162.2 0C-148.3 -18.1 -134.3 -36.2 -123.2 -51C-112 -65.8 -103.7 -77.3 -95.2 -95.2C-86.7 -113.2 -78 -137.6 -62.1 -149.9C-46.2 -162.2 -23.1 -162.2 0 -162.2L0 0Z" fill="#6036a8"></path></g><g transform="translate(0, 0)"><path d="M486.7 0C486.9 70.2 487.1 140.5 449.7 186.3C412.3 232.1 337.2 253.4 286.4 286.4C235.6 319.3 209 363.8 165.3 399.1C121.6 434.4 60.8 460.6 0 486.7L0 0Z" fill="#d9caea"></path><path d="M324.5 0C324.6 46.8 324.8 93.6 299.8 124.2C274.8 154.7 224.8 169 190.9 190.9C157 212.9 139.3 242.5 110.2 266.1C81.1 289.6 40.5 307.1 0 324.5L0 0Z" fill="#8b66be"></path><path d="M162.2 0C162.3 23.4 162.4 46.8 149.9 62.1C137.4 77.4 112.4 84.5 95.5 95.5C78.5 106.4 69.7 121.3 55.1 133C40.5 144.8 20.3 153.5 0 162.2L0 0Z" fill="#6036a8"></path></g></svg>