<svg style="object-fit:cover" id="my-svg" version="1" baseProfile="full" width="100%" height="100%" viewBox="0 0 1880 939" xmlns="http://www.w3.org/2000/svg"><rect width="1880" height="939" fill="#1d0f1e"/><defs><linearGradient id="linear-gradient" x1="0" x2="1" y1="0" y2="1"><stop offset="0%" stop-color="#9984b290"/><stop offset="100%" stop-color="#705f8090"/></linearGradient></defs><path transform="scale(1, -1)" style="transform-origin:center" d="M 0,939 V 0,639 C 121.84523809523807,623.7142857142858 243.69047619047615,608.4285714285714 403,673 C 562.3095238095239,737.5714285714286 759.0833333333335,882 918,820 C 1076.9166666666665,758 1197.9761904761904,489.57142857142856 1352,425 C 1506.0238095238096,360.42857142857144 1693.0119047619048,499.7142857142857 1880,639 C 1880,639 1880,939 1880,939 Z" stroke="none" stroke-width="0" fill="url(#linear-gradient)" class="transition-all duration-300 ease-in-out delay-150"/><defs><linearGradient id="linear-gradient" x1="0" x2="1" y1="0" y2="1"><stop offset="0%" stop-color="#9984b2ff"/><stop offset="100%" stop-color="#705f80ff"/></linearGradient></defs><path transform="scale(1, -1)" style="transform-origin:center" d="M 0,939 V 0,958 C 169.48809523809524,849.8571428571429 338.9761904761905,741.7142857142857 480,728 C 621.0238095238095,714.2857142857143 733.5833333333335,795 896,832 C 1058.4166666666665,869 1270.6904761904761,862.2857142857142 1443,876 C 1615.3095238095239,889.7142857142858 1747.654761904762,923.8571428571429 1880,958 C 1880,958 1880,939 1880,939 Z" stroke="none" stroke-width="0" fill="url(#linear-gradient)" class="transition-all duration-300 ease-in-out delay-150"/></svg>