<svg style="object-fit:cover" id="my-svg" version="1" baseProfile="full" width="100%" height="100%" viewBox="0 0 1880 939" xmlns="http://www.w3.org/2000/svg"><rect width="1880" height="939" fill="#0a010b"/><defs><linearGradient id="linear-gradient" x1="0" x2="1" y1="0" y2="1"><stop offset="0%" stop-color="#9984b290"/><stop offset="100%" stop-color="#705f8090"/></linearGradient></defs><path transform="scale(1, -1)" style="transform-origin:center" d="M 0,939 V 0,639 C 154.3809523809524,751.1071428571429 308.7619047619048,863.2142857142857 471,817 C 633.2380952380952,770.7857142857143 803.3333333333333,566.25 969,473 C 1134.6666666666667,379.75 1295.904761904762,397.78571428571433 1447,444 C 1598.095238095238,490.21428571428567 1739.047619047619,564.6071428571429 1880,639 C 1880,639 1880,939 1880,939 Z" stroke="none" stroke-width="0" fill="url(#linear-gradient)" class="transition-all duration-300 ease-in-out delay-150"/><defs><linearGradient id="linear-gradient" x1="0" x2="1" y1="0" y2="1"><stop offset="0%" stop-color="#9984b2ff"/><stop offset="100%" stop-color="#705f80ff"/></linearGradient></defs><path transform="scale(1, -1)" style="transform-origin:center" d="M 0,939 V 0,958 C 129.38095238095235,922.5714285714286 258.7619047619047,887.1428571428571 395,846 C 531.2380952380953,804.8571428571429 674.3333333333335,758.0000000000001 852,731 C 1029.6666666666665,703.9999999999999 1241.904761904762,696.8571428571428 1419,738 C 1596.095238095238,779.1428571428572 1738.047619047619,868.5714285714287 1880,958 C 1880,958 1880,939 1880,939 Z" stroke="none" stroke-width="0" fill="url(#linear-gradient)" class="transition-all duration-300 ease-in-out delay-150"/></svg>