<svg style="object-fit:cover" id="my-svg" version="1" baseProfile="full" width="100%" height="100%" viewBox="0 0 1880 939" xmlns="http://www.w3.org/2000/svg"><rect width="1880" height="939" fill="#ffffff"/><defs><linearGradient id="linear-gradient" x1="0" x2="1" y1="0" y2="1"><stop offset="0%" stop-color="#8b66be80"/><stop offset="100%" stop-color="#d9caea80"/></linearGradient></defs><path transform="scale(1, 1)" style="transform-origin:center" d="M 0,939 V 0,657 C 167.9880952380953,578.6785714285714 335.9761904761906,500.3571428571429 508,527 C 680.0238095238094,553.6428571428571 856.0833333333333,685.2499999999999 989,725 C 1121.9166666666667,764.7500000000001 1211.6904761904764,712.6428571428572 1353,686 C 1494.3095238095236,659.3571428571428 1687.154761904762,658.1785714285713 1880,657 C 1880,657 1880,939 1880,939 Z" stroke="none" stroke-width="0" fill="url(#linear-gradient)" class="transition-all duration-300 ease-in-out delay-150"/><defs><linearGradient id="linear-gradient" x1="0" x2="1" y1="0" y2="1"><stop offset="0%" stop-color="#8b66be90"/><stop offset="100%" stop-color="#d9caea90"/></linearGradient></defs><path transform="scale(1, 1)" style="transform-origin:center" d="M 0,939 V 0,985 C 168.27380952380958,1046.6785714285716 336.54761904761915,1108.357142857143 489,1042 C 641.4523809523808,975.6428571428571 778.0833333333333,781.2500000000001 951,742 C 1123.9166666666667,702.7499999999999 1333.1190476190475,818.6428571428571 1494,885 C 1654.8809523809525,951.3571428571429 1767.4404761904761,968.1785714285714 1880,985 C 1880,985 1880,939 1880,939 Z" stroke="none" stroke-width="0" fill="url(#linear-gradient)" class="transition-all duration-300 ease-in-out delay-150"/><defs><linearGradient id="linear-gradient" x1="0" x2="1" y1="0" y2="1"><stop offset="0%" stop-color="#8b66beff"/><stop offset="100%" stop-color="#d9caeaff"/></linearGradient></defs><path transform="scale(1, 1)" d="M 0,939 V 0,1478 C 166.20238095238102,1567.0714285714284 332.40476190476204,1656.142857142857 494,1718 C 655.595238095238,1779.857142857143 812.5833333333333,1814.5 978,1703 C 1143.4166666666667,1591.5 1317.2619047619048,1333.857142857143 1469,1272 C 1620.7380952380952,1210.142857142857 1750.3690476190477,1344.0714285714284 1880,1478 C 1880,1478 1880,939 1880,939 Z" stroke="none" stroke-width="0" fill="url(#linear-gradient)" class="transition-all duration-300 ease-in-out delay-150" style="transform-origin: center center;"/></svg>