<svg id="visual" viewBox="0 0 900 600" width="900" height="600" xmlns="http://www.w3.org/2000/svg" xmlns:xlink="http://www.w3.org/1999/xlink" version="1.1"><g transform="translate(471.81963873255563 350.6963870616689)"><path d="M145 -220.5C172.4 -179.6 168.5 -116.5 177.4 -63.6C186.4 -10.7 208.3 32 188.2 51.1C168.1 70.1 106.1 65.4 67.8 88.1C29.4 110.8 14.7 160.9 -5 167.8C-24.7 174.6 -49.4 138.3 -85.7 114.9C-122 91.5 -169.9 81.2 -202.1 49.7C-234.3 18.2 -250.8 -34.3 -232.4 -70.8C-214 -107.2 -160.8 -127.6 -116.3 -163C-71.7 -198.4 -35.9 -248.7 11.5 -264.5C58.8 -280.2 117.6 -261.5 145 -220.5" fill="#1D0F1E"></path></g></svg>