<svg id="visual" viewBox="0 0 900 600" width="900" height="600" xmlns="http://www.w3.org/2000/svg" xmlns:xlink="http://www.w3.org/1999/xlink" version="1.1"><path d="M0 157L82 277L164 157L245 235L327 187L409 121L491 151L573 139L655 145L736 115L818 103L900 109L900 0L818 0L736 0L655 0L573 0L491 0L409 0L327 0L245 0L164 0L82 0L0 0Z" fill="#413542"></path><path d="M0 253L82 325L164 223L245 289L327 277L409 175L491 247L573 175L655 241L736 151L818 175L900 175L900 107L818 101L736 113L655 143L573 137L491 149L409 119L327 185L245 233L164 155L82 275L0 155Z" fill="#4d3e50"></path><path d="M0 349L82 409L164 277L245 373L327 319L409 295L491 313L573 247L655 343L736 265L818 289L900 277L900 173L818 173L736 149L655 239L573 173L491 245L409 173L327 275L245 287L164 221L82 323L0 251Z" fill="#58485f"></path><path d="M0 451L82 499L164 415L245 487L327 385L409 397L491 445L573 409L655 421L736 319L818 343L900 343L900 275L818 287L736 263L655 341L573 245L491 311L409 293L327 317L245 371L164 275L82 407L0 347Z" fill="#63526e"></path><path d="M0 601L82 601L164 601L245 601L327 601L409 601L491 601L573 601L655 601L736 601L818 601L900 601L900 341L818 341L736 317L655 419L573 407L491 443L409 395L327 383L245 485L164 413L82 497L0 449Z" fill="#6e5c7e"></path></svg>