<svg style="object-fit:cover" id="my-svg" version="1" baseProfile="full" width="100%" height="100%" viewBox="0 0 1880 939" xmlns="http://www.w3.org/2000/svg"><rect width="1880" height="939" fill="#ded3ef"/><defs><linearGradient id="linear-gradient" x1="0" x2="1" y1="0" y2="1"><stop offset="0%" stop-color="#9984b290"/><stop offset="100%" stop-color="#705f8090"/></linearGradient></defs><path transform="scale(1, -1)" style="transform-origin:center" d="M 0,939 V 0,639 C 153.77380952380952,719.5 307.54761904761904,800 443,779 C 578.452380952381,758 695.5833333333333,635.5 853,619 C 1010.4166666666667,602.5 1208.119047619048,692.0000000000001 1386,713 C 1563.880952380952,733.9999999999999 1721.9404761904761,686.5 1880,639 C 1880,639 1880,939 1880,939 Z" stroke="none" stroke-width="0" fill="url(#linear-gradient)" class="transition-all duration-300 ease-in-out delay-150"/><defs><linearGradient id="linear-gradient" x1="0" x2="1" y1="0" y2="1"><stop offset="0%" stop-color="#9984b2ff"/><stop offset="100%" stop-color="#705f80ff"/></linearGradient></defs><path transform="scale(1, -1)" style="transform-origin:center" d="M 0,939 V 0,958 C 149.20238095238096,876.0714285714286 298.4047619047619,794.1428571428571 440,748 C 581.5952380952381,701.8571428571429 715.5833333333333,691.4999999999998 891,791 C 1066.4166666666667,890.5000000000002 1283.2619047619048,1099.857142857143 1455,1146 C 1626.7380952380952,1192.142857142857 1753.3690476190477,1075.0714285714284 1880,958 C 1880,958 1880,939 1880,939 Z" stroke="none" stroke-width="0" fill="url(#linear-gradient)" class="transition-all duration-300 ease-in-out delay-150"/></svg>