<svg width="193" height="103" viewBox="0 0 193 103" fill="none" xmlns="http://www.w3.org/2000/svg">
<rect width="193" height="103" fill="white"/>
<g clip-path="url(#clip0_926_178)">
<path d="M62.313 49.1075C59.9152 49.1075 57.5901 50.195 56.1369 52.1525C54.4656 54.1824 53.5937 56.72 53.6664 59.33C53.5937 60.9974 54.1024 62.665 55.1923 63.8974C56.2096 65.0574 57.7353 65.71 59.3339 65.6374C61.6591 65.6374 63.8389 64.55 65.2195 62.7374C66.9633 60.635 67.9079 58.025 67.9079 55.27C67.9806 53.675 67.5445 52.08 66.6 50.775C65.7281 49.6875 64.2748 49.1075 62.313 49.1075ZM62.4584 61.36C61.6591 62.1574 60.6418 62.5924 59.4792 62.5924C58.7526 62.665 58.026 62.3024 57.5173 61.7224C57.0087 60.9974 56.7908 60.2 56.7908 59.33C56.718 57.5174 57.2267 55.705 58.3166 54.1826C59.1159 52.8775 60.5691 52.08 62.1677 52.08C63.9116 52.08 64.7834 53.1675 64.7834 55.27C64.7834 57.5176 63.9843 59.6924 62.4584 61.36ZM156.045 56.72C155.319 56.5026 154.52 56.7924 154.229 57.5174C152.848 60.925 151.25 62.5924 149.215 62.5924C148.125 62.5924 147.617 61.65 147.617 59.91C147.762 57.9524 148.053 55.995 148.489 54.0374L148.925 52.0075H153.066C153.793 52.0075 154.374 51.5 154.52 50.775C154.665 49.9775 154.156 49.18 153.357 49.035C153.284 49.035 153.139 49.035 153.066 49.035H149.579L150.305 45.6275C150.45 44.7575 149.942 43.96 149.07 43.7425C148.997 43.7425 148.852 43.7425 148.779 43.7425C148.053 43.7425 147.399 44.25 147.253 44.975L146.381 48.9625H136.718C134.247 48.9625 131.995 50.1225 130.541 52.08C128.87 54.11 127.998 56.6476 128.071 59.2576C128.071 59.9826 128.144 60.635 128.289 61.36C127.635 62.085 126.763 62.52 125.746 62.5924C125.237 62.665 124.729 62.4474 124.438 62.085C124.147 61.5774 124.002 60.925 124.075 60.345C124.147 58.605 124.365 56.865 124.801 55.1974L127.344 43.525C127.562 42.7275 127.054 41.8575 126.182 41.7125C125.383 41.495 124.511 42.0025 124.365 42.8725L122.912 49.9775C121.895 49.3975 120.732 49.035 119.497 49.035C117.099 49.035 114.774 50.05 113.176 51.935C111.504 53.965 110.56 56.575 110.632 59.2576C110.632 60.1276 110.705 60.925 110.996 61.795C110.414 62.3026 109.615 62.5924 108.889 62.5924C108.38 62.665 107.871 62.4474 107.508 62.085C107.145 61.5774 106.999 60.9976 107.072 60.345C107.145 59.185 107.29 58.025 107.581 56.865C107.726 55.995 107.217 55.1974 106.345 54.98C106.273 54.98 106.273 54.98 106.2 54.98C105.401 54.9074 104.674 55.415 104.529 56.14C104.093 57.8074 103.366 59.33 102.422 60.7076C101.695 61.795 100.533 62.52 99.2246 62.5924C98.5708 62.5924 97.9167 62.23 97.5535 61.65C97.1176 60.8524 96.8995 59.9824 96.8995 59.1124C96.8269 57.3 97.3355 55.4874 98.4253 54.0374C99.2974 52.7325 100.823 52.0075 102.422 52.0075C103.221 52.0075 104.02 52.1525 104.747 52.515C105.183 52.7325 105.691 52.66 106.127 52.4425C106.854 52.0075 107.072 51.1375 106.636 50.4125C106.491 50.1225 106.2 49.905 105.91 49.8325C105.546 49.6875 105.11 49.5425 104.674 49.47C103.948 49.2525 103.148 49.18 102.422 49.1075C100.024 49.1075 97.6988 50.195 96.1729 52.0075C95.2283 53.0225 94.5744 54.255 94.2111 55.56C92.6852 60.345 90.7961 62.665 88.4709 62.665C87.817 62.7376 87.1629 62.4474 86.727 61.8674C86.3636 61.2874 86.1457 60.635 86.2184 59.9826C86.2184 59.765 86.2184 59.5474 86.2911 59.33C87.6716 58.75 88.9068 57.88 89.8515 56.6474C90.7234 55.4874 91.232 54.11 91.232 52.66C91.232 50.2675 89.9241 49.035 87.2357 49.035C85.4191 49.035 83.6025 49.76 82.2948 51.065L83.8207 43.4525C83.9659 42.655 83.4573 41.785 82.658 41.64C82.5853 41.64 82.44 41.64 82.3673 41.64C81.6407 41.64 80.9869 42.1475 80.8414 42.8725L76.3365 63.825C76.1912 64.6224 76.6999 65.42 77.4992 65.6374C77.5717 65.6374 77.7171 65.6374 77.7898 65.6374C78.5164 65.6374 79.0976 65.0574 79.243 64.405L80.6235 57.9524C80.8414 57.0824 81.2048 56.285 81.5682 55.4874C82.0767 54.6174 82.8034 53.82 83.6025 53.1675C84.4745 52.4425 85.5645 52.0075 86.6543 52.08C87.2357 52.0075 87.7443 52.37 87.817 52.95C87.817 53.0225 87.817 53.1675 87.817 53.24C87.7443 54.255 87.2357 55.1974 86.3637 55.7774C85.4918 56.575 84.4018 57.0824 83.2393 57.3C83.1666 58.2424 83.0939 58.895 83.0939 59.2576C83.0214 60.925 83.4573 62.5924 84.4745 63.8974C85.4191 65.0574 86.8723 65.71 88.3256 65.565C90.36 65.565 92.322 64.55 93.6297 62.955L94.2111 62.23C94.429 62.81 94.7197 63.3176 95.1556 63.7526C96.1003 64.9126 97.5535 65.565 99.0067 65.4924C101.114 65.4924 102.858 64.55 104.311 62.52C104.965 64.55 106.418 65.4924 108.816 65.4924C110.196 65.4924 111.504 64.985 112.522 64.115C113.466 64.985 114.701 65.4924 116.009 65.42C118.116 65.42 119.86 64.4774 121.314 62.4474C121.968 64.4774 123.421 65.42 125.818 65.42C127.344 65.42 128.87 64.84 129.96 63.825C130.977 64.9124 132.431 65.4924 133.884 65.42C136.209 65.42 138.389 64.3324 139.769 62.52C141.513 60.4174 142.458 57.8074 142.458 55.0524C142.458 53.965 142.313 52.8775 141.876 51.79H145.873L145.51 53.53C145.001 55.56 144.71 57.59 144.565 59.6924C144.565 63.4624 146.091 65.42 149.143 65.42C152.63 65.42 155.173 63.1 157.063 58.5326C157.353 57.8076 157.063 57.01 156.409 56.72C156.191 56.7926 156.118 56.7926 156.045 56.72ZM121.749 54.9076C121.241 57.59 120.369 59.475 119.352 60.78C118.334 62.0124 117.244 62.665 116.082 62.665C115.428 62.665 114.774 62.3024 114.411 61.7224C113.975 60.925 113.757 60.1274 113.757 59.185C113.684 57.3724 114.193 55.56 115.283 54.11C116.663 52.0075 119.424 51.4275 121.459 52.805C121.677 52.95 121.822 53.095 122.04 53.24L121.749 54.9076ZM138.607 58.5326C138.171 59.5476 137.517 60.49 136.863 61.36C136.064 62.1574 135.046 62.665 133.884 62.665C133.157 62.7376 132.431 62.375 131.922 61.795C131.413 61.07 131.195 60.2724 131.195 59.4024C131.123 57.59 131.631 55.7774 132.721 54.255C133.593 52.95 134.974 52.1525 136.572 52.1525C138.316 52.1525 139.188 53.24 139.188 55.3424C139.188 56.43 138.97 57.5176 138.607 58.5326ZM75.4646 41.64C74.738 41.64 74.084 42.1475 73.9387 42.8725L69.4338 63.825C69.2884 64.6224 69.797 65.42 70.5963 65.6374C70.669 65.6374 70.8143 65.6374 70.887 65.6374C71.6136 65.6374 72.2676 65.13 72.4129 64.405L76.9178 43.4525C77.0631 42.5825 76.5544 41.785 75.6826 41.64C75.6099 41.64 75.5373 41.64 75.4646 41.64ZM43.2759 37C37.1724 37 32.2314 41.93 32.2314 48.02C32.2314 49.2525 32.4494 50.4125 32.8127 51.5725C33.1034 52.37 33.9753 52.805 34.7746 52.515C35.5738 52.225 35.9371 51.355 35.7192 50.5575C35.3559 49.6875 35.2105 48.6725 35.2832 47.73C35.4285 43.38 39.0616 39.9 43.4939 40.045C47.8535 40.19 51.3412 43.815 51.1958 48.2375C51.0506 52.37 47.8535 55.705 43.7118 55.9224C43.7118 55.9224 42.186 55.995 41.3867 56.14C41.0961 56.2124 40.8054 56.2124 40.5148 56.285C40.4421 56.285 40.3695 56.285 40.3695 56.285C40.3695 56.2124 40.3695 56.2124 40.3695 56.14L40.5874 54.835L42.0406 48.2375C42.186 47.44 41.6773 46.6425 40.8781 46.425C40.0788 46.2075 39.2795 46.7875 39.0616 47.585C39.0616 47.585 35.5738 63.6076 35.5738 63.7526C35.3559 64.55 35.8645 65.3474 36.6637 65.4924H36.7364C37.5357 65.71 38.335 65.2024 38.4803 64.405V64.3324C38.5529 64.115 38.9889 62.0124 38.9889 62.0124C39.3522 60.4174 40.5874 59.185 42.2586 58.9674C42.6219 58.895 44.0025 58.8224 44.0025 58.8224C50.0333 58.2424 54.5383 52.8775 53.9569 46.86C53.521 41.4225 48.8708 37.0725 43.2759 37Z" fill="#3B3B3B"/>
<path d="M159.315 62.3748C158.298 62.1574 157.353 62.8098 157.135 63.8248C156.917 64.8398 157.571 65.7824 158.515 65.9998C158.515 65.9998 158.515 65.9998 158.588 65.9998C159.533 66.2174 160.55 65.6374 160.768 64.6224V64.5498C160.913 63.5348 160.259 62.5924 159.315 62.3748Z" fill="#3B3B3B"/>
</g>
<defs>
<clipPath id="clip0_926_178">
<rect width="135" height="29" fill="white" transform="translate(29 37)"/>
</clipPath>
</defs>
</svg>
